HIERARCHY
ROOT Hips
{
	OFFSET -3.958830 18.904000 13.208200
	CHANNELS 6 Xposition Yposition Zposition Zrotation Yrotation Xrotation 
	JOINT LHipJoint
	{
		OFFSET 0.000000 0.000000 0.000000
		CHANNELS 3 Zrotation Yrotation Xrotation
		JOINT LeftUpLeg
		{
			OFFSET 1.800000 -1.400000 0.085000
			CHANNELS 3 Zrotation Yrotation Xrotation
			JOINT LeftLeg
			{
				OFFSET 2.215000 -6.000000 0.000000
				CHANNELS 3 Zrotation Yrotation Xrotation
				JOINT LeftFoot
				{
					OFFSET 2.500000 -6.900000 0.000000
					CHANNELS 3 Zrotation Yrotation Xrotation
					JOINT LeftToeBase
					{
						OFFSET 0.200000 -0.500000 1.950000
						CHANNELS 3 Zrotation Yrotation Xrotation
						End Site
						{
							OFFSET 0.000000 0.000000 0.000000
						}
					}
				}
			}
		}
	}
	JOINT RHipJoint
	{
		OFFSET 0.000000 0.000000 0.000000
		CHANNELS 3 Zrotation Yrotation Xrotation
		JOINT RightUpLeg
		{
			OFFSET -1.800000 -1.400000 0.085000
			CHANNELS 3 Zrotation Yrotation Xrotation
			JOINT RightLeg
			{
				OFFSET -2.215000 -6.000000 0.000000
				CHANNELS 3 Zrotation Yrotation Xrotation
				JOINT RightFoot
				{
					OFFSET -2.500000 -6.900000 0.000000
					CHANNELS 3 Zrotation Yrotation Xrotation
					JOINT RightToeBase
					{
						OFFSET -0.200000 -0.500000 1.950000
						CHANNELS 3 Zrotation Yrotation Xrotation
						End Site
						{
							OFFSET 0.000000 0.000000 0.000000
						}
					}
				}
			}
		}
	}
	JOINT LowerBack
	{
		OFFSET 0.000000 0.000000 0.000000
		CHANNELS 3 Zrotation Yrotation Xrotation
		JOINT Spine
		{
			OFFSET -0.087000 1.940000 -0.288900
			CHANNELS 3 Zrotation Yrotation Xrotation
			JOINT Spine1
			{
				OFFSET 0.000000 1.950000 0.060000
				CHANNELS 3 Zrotation Yrotation Xrotation
				JOINT Neck
				{
					OFFSET 0.000000 0.000000 0.000000
					CHANNELS 3 Zrotation Yrotation Xrotation
					JOINT Neck1
					{
						OFFSET 0.000000 1.600000 0.340000
						CHANNELS 3 Zrotation Yrotation Xrotation
						JOINT Head
						{
							OFFSET 0.000000 1.667000 -0.240000
							CHANNELS 3 Zrotation Yrotation Xrotation
							End Site
							{
								OFFSET 0.000000 0.000000 0.000000
							}
						}
					}
				}
				JOINT LeftShoulder
				{
					OFFSET 0.000000 0.000000 0.000000
					CHANNELS 3 Zrotation Yrotation Xrotation
					JOINT LeftArm
					{
						OFFSET 2.700000 1.550000 -0.730000
						CHANNELS 3 Zrotation Yrotation Xrotation
						JOINT LeftForeArm
						{
							OFFSET 5.450000 0.000000 0.000000
							CHANNELS 3 Zrotation Yrotation Xrotation
							JOINT LeftHand
							{
								OFFSET 3.450000 0.000000 0.000000
								CHANNELS 3 Zrotation Yrotation Xrotation
								JOINT LeftHandIndex1
								{
									OFFSET 0.750000 0.000000 0.000000
									CHANNELS 3 Zrotation Yrotation Xrotation
									End Site
									{
										OFFSET 0.000000 0.000000 0.000000
									}
								}
							}
						}
					}
				}
				JOINT RightShoulder
				{
					OFFSET 0.000000 0.000000 0.000000
					CHANNELS 3 Zrotation Yrotation Xrotation
					JOINT RightArm
					{
						OFFSET -2.700000 1.550000 -0.730000
						CHANNELS 3 Zrotation Yrotation Xrotation
						JOINT RightForeArm
						{
							OFFSET -5.450000 0.000000 0.000000
							CHANNELS 3 Zrotation Yrotation Xrotation
							JOINT RightHand
							{
								OFFSET -3.450000 0.000000 0.000000
								CHANNELS 3 Zrotation Yrotation Xrotation
								JOINT RightHandIndex1
								{
									OFFSET -0.750000 0.000000 0.000000
									CHANNELS 3 Zrotation Yrotation Xrotation
									End Site
									{
										OFFSET 0.000000 0.000000 0.000000
									}
								}
							}
						}
					}
				}
			}
		}
	}
}
MOTION
Frames: 6
Frame Time: 0.016667
-3.771190 17.696250 -2.510810 -2.656490 -10.394120 -7.515291 -14.775064 12.567545 0.136650 22.199673 7.634282 -8.162183 15.913736 4.222645 26.502117 -0.438705 5.891312 2.610458 0.180460 0.211680 -0.420740 18.894038 -9.554094 6.502032 -39.893947 12.656190 -20.415201 57.694386 -8.933365 6.965620 -1.790537 -8.294184 1.275923 0.089210 0.912380 0.770540 -5.121209 0.913799 -8.111816 11.808763 1.458313 12.086550 -4.130434 1.534499 23.173221 3.235431 -5.493667 -17.006047 -5.977564 10.455862 51.232291 -0.651980 4.405700 -19.174370 -2.197184 -17.001295 8.498708 -61.321396 1.822455 -5.176149 -17.448169 -1.514863 -2.763509 -4.014669 2.545050 0.855500 0.312910 0.415850 0.585870 -1.062669 25.969443 14.177207 76.792198 61.680345 19.860625 -27.472849 68.469020 -25.106865 1.790077 -0.787528 -0.217550 0.645980 0.309030 0.336820 
-3.929220 17.709870 -2.492590 -2.311358 -10.778835 -7.221707 -14.819464 12.556733 0.149238 22.567286 7.685079 -7.747023 15.597030 4.290705 25.507991 -0.441878 5.840432 2.662423 0.143690 0.157980 -0.443930 18.855431 -9.589139 6.430645 -40.085426 12.160188 -20.372190 55.669490 -8.752962 6.660594 -1.709883 -8.212872 1.311662 0.067270 0.953450 0.759430 -4.998676 0.953887 -8.045156 10.319231 1.970443 11.022558 -3.401823 1.720034 23.281421 3.172188 -5.138783 -17.164613 -5.060638 10.212210 51.264699 -0.502590 4.585160 -17.694100 -1.124916 -16.092900 8.413707 -61.693716 2.733496 -5.914980 -18.447269 -2.719528 -2.793767 -4.017033 2.537153 0.842370 0.341440 0.378840 0.591820 -1.916349 25.024679 14.503608 79.974409 62.381248 23.840478 -30.762438 70.444408 -27.990997 1.841595 -0.741332 -0.245950 0.651780 0.316500 0.336270 
-4.143380 17.716990 -2.463410 -2.048572 -11.492127 -6.913097 -14.856640 12.491676 0.179114 23.471719 7.759435 -6.659488 14.674809 4.500026 23.856097 -0.449212 5.760414 2.721490 0.155260 0.170280 -0.453700 18.823958 -9.669233 6.283524 -39.743763 11.508062 -19.902831 52.562162 -8.359327 6.058026 -1.610850 -8.073371 1.348270 0.088350 0.982780 0.759090 -4.908975 1.131390 -7.889361 8.885910 2.623136 9.508855 -2.578267 1.996117 23.731600 3.258508 -4.984323 -16.834562 -4.514234 10.270461 49.793548 0.144800 4.567980 -17.338400 0.577918 -13.180559 7.465560 -62.462015 3.309256 -6.419786 -18.796995 -3.791683 -2.728097 -4.010498 2.563229 0.817780 0.362610 0.351830 0.616300 -3.554465 22.414961 14.949857 84.064931 64.389888 30.948925 -37.958151 74.320186 -34.082845 1.891964 -0.604017 -0.256730 0.645250 0.296440 0.348910 
-4.379580 17.716400 -2.434210 -1.789020 -11.551331 -7.069506 -14.883802 12.521083 0.267346 24.385416 7.755385 -5.895100 13.982575 4.709456 23.031738 -0.444740 5.804203 2.744895 0.126160 0.119330 -0.484990 18.769336 -9.797574 6.043133 -38.733408 10.436597 -18.548673 48.454043 -8.158508 5.565177 -1.454140 -7.908259 1.405709 0.085010 1.031550 0.725120 -4.778384 1.121272 -7.796520 7.456091 2.641509 8.659767 -2.232260 1.865988 24.303082 3.325934 -5.083635 -17.113931 -4.783364 10.470056 48.015428 0.816570 4.183990 -15.351780 1.788064 -11.134369 7.160832 -62.103724 5.237840 -8.099604 -20.842972 -7.412169 -2.572842 -3.966192 2.622142 0.784720 0.393490 0.275010 0.624340 -4.761170 20.744279 15.928015 83.808964 67.171986 34.291471 -49.342642 77.946868 -43.133768 1.845492 -0.142799 -0.300230 0.639320 0.295680 0.348970 
-4.616940 17.711040 -2.413060 -1.071091 -11.649542 -7.552269 -14.951166 12.603584 0.370054 24.854986 7.717385 -4.472649 12.871844 4.916722 21.591315 -0.426345 5.772965 2.793317 0.102770 0.086890 -0.515330 18.678475 -9.826879 5.835023 -38.220201 9.497386 -17.063661 45.069295 -7.941197 5.004756 -1.338897 -7.750076 1.459024 0.072640 1.054240 0.692730 -4.532531 0.852276 -7.735053 5.480716 2.724706 8.303066 -1.708734 1.884951 24.748012 3.234418 -5.665007 -17.563740 -6.308782 10.778765 47.259662 1.803310 3.398460 -14.526180 2.376368 -9.414737 7.049412 -61.860132 7.055029 -9.752996 -22.474596 -11.382825 -2.198121 -3.892708 2.685843 0.769200 0.391630 0.233250 0.626940 -5.064388 19.723119 16.772024 80.395266 69.365402 33.901113 -63.070420 80.581768 -53.646114 1.678777 0.908203 -0.320420 0.640030 0.297840 0.357740 
-4.851730 17.682270 -2.396320 -0.621146 -11.514852 -7.982574 -15.018167 12.620311 0.474148 25.425725 7.519017 -3.367156 11.434411 5.163490 20.242123 -0.417981 5.791809 2.808754 0.097950 0.075910 -0.549030 18.604735 -9.789373 5.641344 -37.608387 8.609287 -15.316624 42.840249 -7.735291 4.123529 -1.280642 -7.661967 1.474387 0.072830 1.086500 0.703870 -4.324334 0.588793 -7.642474 3.901489 2.696965 7.962609 -1.095588 1.774242 25.271331 3.150801 -6.356018 -17.360434 -7.962588 11.384714 45.381243 3.010080 2.699390 -14.958160 2.508852 -7.850433 6.985435 -60.958085 8.645715 -10.944194 -24.671433 -15.425715 -1.634074 -3.848048 2.793191 0.752790 0.397340 0.204650 0.633060 -4.950051 18.847399 16.572642 77.277837 71.457772 40.951513 -90.751979 75.705679 -71.865380 1.431784 3.217866 -0.318110 0.634600 0.317640 0.375040 
